<svg id="Layer_1" data-name="Layer 1" xmlns="http://www.w3.org/2000/svg" viewBox="0 0 170.86 150.17"><defs><style>.cls-1{fill:#212a31;}</style></defs><path class="cls-1" d="M89.29,43.93a3.09,3.09,0,0,0,3.09-3.09V26a3.09,3.09,0,1,0-6.18,0V40.84A3.1,3.1,0,0,0,89.29,43.93Z"/><path class="cls-1" d="M72.74,44.27A3.09,3.09,0,1,0,78.48,42L74.06,30.81a3.09,3.09,0,1,0-5.74,2.27Z"/><path class="cls-1" d="M59.86,50.22a3.09,3.09,0,0,0,4.37-4.37L58.6,40.22a3.09,3.09,0,0,0-4.37,4.37Z"/><path class="cls-1" d="M102,46.09a3.09,3.09,0,0,0,4-1.73L110.44,33a3.09,3.09,0,1,0-5.74-2.27l-4.48,11.33A3.08,3.08,0,0,0,102,46.09Z"/><path class="cls-1" d="M74.94,79.4a14.35,14.35,0,0,0,.55,3.9L93.2,65.59A14.33,14.33,0,0,0,74.94,79.4Z"/><path class="cls-1" d="M89.29,93.75A14.36,14.36,0,0,0,103.65,79.4a14,14,0,0,0-.56-3.91L85.39,93.2A14.35,14.35,0,0,0,89.29,93.75Z"/><polygon class="cls-1" points="111.02 64.74 117.68 58.08 117.68 58.08 140.64 35.12 133.57 28.05 95.26 66.36 95.26 66.36 79.94 81.68 67.56 94.06 67.56 94.06 63.44 98.18 41.42 120.2 48.49 127.27 111.02 64.74 111.02 64.74"/><path class="cls-1" d="M119.28,59.31l-7.18,7.18A26.2,26.2,0,0,1,76.38,102.2L71.61,107a44,44,0,0,0,17.68,3.78c30,0,47.55-31.36,47.55-31.36A76.71,76.71,0,0,0,119.28,59.31Z"/><path class="cls-1" d="M59.31,99.48l7.17-7.17A26.21,26.21,0,0,1,102.2,56.59L107,51.82A43.74,43.74,0,0,0,89.29,48C59.3,48,41.75,79.4,41.75,79.4A76.53,76.53,0,0,0,59.31,99.48Z"/></svg>