<svg id="Layer_1" data-name="Layer 1" xmlns="http://www.w3.org/2000/svg" viewBox="0 0 170.86 150.17"><defs><style>.cls-1{fill:#faf7f2;}</style></defs><path class="cls-1" d="M85.43,78.57c-30.4,0-47.93-27.3-48.66-28.46a3,3,0,1,1,5.07-3.2h0c.17.26,16.55,25.66,43.59,25.66S128.85,47.17,129,46.91a3,3,0,0,1,5.08,3.2C133.36,51.27,115.83,78.57,85.43,78.57Z"/><path class="cls-1" d="M85.44,83.64a3.08,3.08,0,0,0-3.09,3.08v14.85a3.09,3.09,0,0,0,6.18,0V86.72A3.08,3.08,0,0,0,85.44,83.64Z"/><path class="cls-1" d="M102,83.29a3.09,3.09,0,0,0-5.74,2.27l4.42,11.19a3.09,3.09,0,1,0,5.75-2.27Z"/><path class="cls-1" d="M114.87,77.34a3.09,3.09,0,0,0-4.36,4.37l5.63,5.63A3.09,3.09,0,0,0,120.5,83Z"/><path class="cls-1" d="M56,77.34,50.35,83a3.09,3.09,0,1,0,4.37,4.37l5.63-5.63A3.09,3.09,0,0,0,56,77.34Z"/><path class="cls-1" d="M72.78,81.47a3.09,3.09,0,0,0-4,1.73L64.29,94.53a3.09,3.09,0,0,0,1.74,4h0a3.08,3.08,0,0,0,4-1.74l4.48-11.33A3.08,3.08,0,0,0,72.78,81.47Z"/></svg>