<svg id="Layer_1" data-name="Layer 1" xmlns="http://www.w3.org/2000/svg" viewBox="0 0 170.86 150.17"><defs><style>.cls-1{fill:#212a31;}</style></defs><path class="cls-1" d="M87.93,37.11c20.93,0,35.46,18.13,40.43,25.36-5,7.25-19.5,25.36-40.43,25.36S52.47,69.71,47.5,62.47c5-7.24,19.5-25.36,40.43-25.36m0-6c-30,0-47.54,31.36-47.54,31.36S57.94,93.83,87.93,93.83s47.54-31.36,47.54-31.36S117.92,31.11,87.93,31.11Z"/><path class="cls-1" d="M87.94,98a3.09,3.09,0,0,0-3.09,3.09V116A3.09,3.09,0,0,0,91,116V101.12A3.09,3.09,0,0,0,87.94,98Z"/><path class="cls-1" d="M104.49,97.69A3.09,3.09,0,1,0,98.75,100l4.42,11.19a3.09,3.09,0,1,0,5.75-2.27Z"/><path class="cls-1" d="M117.38,91.74A3.09,3.09,0,1,0,113,96.11l5.63,5.63A3.09,3.09,0,1,0,123,97.37Z"/><path class="cls-1" d="M58.48,91.74l-5.63,5.63a3.09,3.09,0,1,0,4.37,4.37l5.63-5.63a3.09,3.09,0,0,0-4.37-4.37Z"/><path class="cls-1" d="M75.28,95.87a3.09,3.09,0,0,0-4,1.73l-4.48,11.33a3.09,3.09,0,0,0,1.74,4h0a3.08,3.08,0,0,0,4-1.74L77,99.87A3.08,3.08,0,0,0,75.28,95.87Z"/></svg>