<svg id="Layer_1" data-name="Layer 1" xmlns="http://www.w3.org/2000/svg" viewBox="0 0 170.86 150.17"><defs><style>.cls-1{fill:#faf7f2;}</style></defs><path class="cls-1" d="M97.16,72.59H87.93V63.35a2.5,2.5,0,1,0-5,0v9.24H73.69a2.5,2.5,0,0,0,0,5h9.24v9.23a2.5,2.5,0,0,0,5,0V77.59h9.23a2.5,2.5,0,0,0,0-5Z"/><path class="cls-1" d="M85.43,36.15a2.5,2.5,0,0,0,2.5-2.5V22.23a2.5,2.5,0,0,0-5,0V33.65A2.5,2.5,0,0,0,85.43,36.15Z"/><path class="cls-1" d="M85.43,114a2.5,2.5,0,0,0-2.5,2.5V128a2.5,2.5,0,1,0,5,0V116.52A2.5,2.5,0,0,0,85.43,114Z"/><path class="cls-1" d="M138.29,72.59h-6.88c-4.72-7.17-20.08-27.41-43.48-28.78v-1a2.5,2.5,0,0,0-5,0v1c-23.4,1.37-38.76,21.61-43.49,28.78H32.57a2.5,2.5,0,1,0,0,5h6.87c4.73,7.16,20.09,27.41,43.49,28.78v.95a2.5,2.5,0,0,0,5,0v-.95c23.4-1.38,38.76-21.62,43.48-28.78h6.88a2.5,2.5,0,0,0,0-5ZM87.93,101.18V95.89a2.5,2.5,0,1,0-5,0v5.29A26.22,26.22,0,0,1,59.34,77.59h5.29a2.5,2.5,0,0,0,0-5H59.34A26.21,26.21,0,0,1,82.93,49v5.28a2.5,2.5,0,0,0,5,0V49a26.21,26.21,0,0,1,23.59,23.59h-5.29a2.5,2.5,0,1,0,0,5h5.29A26.23,26.23,0,0,1,87.93,101.18Z"/></svg>