<svg id="Layer_1" data-name="Layer 1" xmlns="http://www.w3.org/2000/svg" viewBox="0 0 170.86 150.17"><defs><style>.cls-1{fill:#212a31;}</style></defs><circle class="cls-1" cx="89.29" cy="81.66" r="14.35"/><path class="cls-1" d="M89.29,46.18a3.09,3.09,0,0,0,3.09-3.09V28.25a3.09,3.09,0,1,0-6.17,0V43.09A3.08,3.08,0,0,0,89.29,46.18Z"/><path class="cls-1" d="M72.74,46.53a3.09,3.09,0,0,0,5.75-2.27L74.06,33.07a3.09,3.09,0,1,0-5.74,2.27Z"/><path class="cls-1" d="M59.86,52.48a3.09,3.09,0,1,0,4.37-4.37L58.6,42.48a3.09,3.09,0,0,0-4.37,4.37Z"/><path class="cls-1" d="M118.75,52.48l5.63-5.63A3.09,3.09,0,0,0,120,42.48l-5.63,5.63a3.09,3.09,0,1,0,4.37,4.37Z"/><path class="cls-1" d="M102,48.35a3.09,3.09,0,0,0,4-1.73l4.48-11.33A3.09,3.09,0,0,0,104.7,33l-4.48,11.32A3.09,3.09,0,0,0,102,48.35Z"/><path class="cls-1" d="M114.81,105v0c-.82-1.31-1.7-2.59-2.55-3.78h0c-.85-1.19-1.67-2.28-2.39-3.2l0,0h0c-1.37-1.76-2.35-2.9-2.35-2.9s-11,12.87-11,19a11,11,0,1,0,22.06,0c0-2.36-1.67-5.75-3.7-9Z"/><path class="cls-1" d="M89.29,50.29c-30,0-47.54,31.37-47.54,31.37S59.3,113,89.29,113a41.17,41.17,0,0,0,5.27-.34,20.89,20.89,0,0,1,2.24-5.91,26.21,26.21,0,1,1,14.27-10.53,86.09,86.09,0,0,1,5.4,7.6,76.2,76.2,0,0,0,20.37-22.18S119.28,50.29,89.29,50.29Z"/></svg>