<svg id="Layer_1" data-name="Layer 1" xmlns="http://www.w3.org/2000/svg" viewBox="0 0 170.86 150.17"><defs><style>.cls-1{fill:#faf7f2;}</style></defs><path class="cls-1" d="M82.35,37.11c20.93,0,35.46,18.13,40.43,25.36-5,7.25-19.5,25.36-40.43,25.36S46.89,69.71,41.92,62.47c5-7.24,19.5-25.36,40.43-25.36m0-6c-30,0-47.54,31.36-47.54,31.36S52.36,93.83,82.35,93.83s47.54-31.36,47.54-31.36S112.34,31.11,82.35,31.11Z"/><path class="cls-1" d="M82.36,98a3.1,3.1,0,0,0-3.09,3.09V116a3.09,3.09,0,0,0,6.18,0V101.12A3.09,3.09,0,0,0,82.36,98Z"/><path class="cls-1" d="M98.92,97.69A3.09,3.09,0,0,0,93.17,100l4.43,11.19a3.09,3.09,0,1,0,5.74-2.27Z"/><path class="cls-1" d="M111.8,91.74a3.09,3.09,0,0,0-4.37,4.37l5.63,5.63a3.09,3.09,0,1,0,4.37-4.37Z"/><path class="cls-1" d="M52.91,91.74l-5.63,5.63a3.09,3.09,0,1,0,4.36,4.37l5.63-5.63a3.09,3.09,0,1,0-4.36-4.37Z"/><path class="cls-1" d="M69.7,95.87a3.09,3.09,0,0,0-4,1.73l-4.48,11.33a3.09,3.09,0,0,0,1.74,4h0a3.1,3.1,0,0,0,4-1.74l4.48-11.33A3.08,3.08,0,0,0,69.7,95.87Z"/></svg>