<svg id="Layer_1" data-name="Layer 1" xmlns="http://www.w3.org/2000/svg" viewBox="0 0 170.86 150.17"><defs><style>.cls-1{fill:#faf7f2;}</style></defs><path class="cls-1" d="M85.43,43.43c-30,0-47.54,31.36-47.54,31.36s17.55,31.36,47.54,31.36S133,74.79,133,74.79,115.42,43.43,85.43,43.43Zm0,57.57a26.21,26.21,0,1,1,26.21-26.21A26.2,26.2,0,0,1,85.43,101Z"/><circle class="cls-1" cx="85.43" cy="74.79" r="14.35"/><path class="cls-1" d="M85.43,39.32a3.09,3.09,0,0,0,3.09-3.09V21.38a3.09,3.09,0,0,0-6.18,0V36.23A3.09,3.09,0,0,0,85.43,39.32Z"/><path class="cls-1" d="M68.88,39.66a3.09,3.09,0,1,0,5.74-2.27L70.2,26.2a3.09,3.09,0,0,0-5.75,2.28Z"/><path class="cls-1" d="M56,45.62a3.09,3.09,0,1,0,4.36-4.37l-5.63-5.63A3.09,3.09,0,0,0,50.37,40Z"/><path class="cls-1" d="M114.89,45.62,120.52,40a3.09,3.09,0,1,0-4.37-4.37l-5.63,5.63a3.09,3.09,0,1,0,4.37,4.37Z"/><path class="cls-1" d="M98.09,41.49a3.09,3.09,0,0,0,4-1.74l4.48-11.32a3.09,3.09,0,0,0-1.74-4h0a3.08,3.08,0,0,0-4,1.73L96.36,37.48A3.09,3.09,0,0,0,98.09,41.49Z"/><path class="cls-1" d="M85.45,110.85a3.1,3.1,0,0,0-3.09,3.09v14.85a3.09,3.09,0,0,0,6.18,0V113.94A3.09,3.09,0,0,0,85.45,110.85Z"/><path class="cls-1" d="M102,110.51a3.09,3.09,0,0,0-5.75,2.27L100.69,124a3.09,3.09,0,1,0,5.74-2.27Z"/><path class="cls-1" d="M114.89,104.56a3.09,3.09,0,0,0-4.37,4.37l5.63,5.62a3.09,3.09,0,1,0,4.37-4.36Z"/><path class="cls-1" d="M56,104.56l-5.63,5.63a3.08,3.08,0,1,0,4.36,4.36l5.63-5.62A3.09,3.09,0,0,0,56,104.56Z"/><path class="cls-1" d="M72.79,108.68a3.1,3.1,0,0,0-4,1.74L64.3,121.75a3.09,3.09,0,0,0,1.74,4h0a3.1,3.1,0,0,0,4-1.74l4.48-11.33A3.11,3.11,0,0,0,72.79,108.68Z"/></svg>