<svg id="Layer_1" data-name="Layer 1" xmlns="http://www.w3.org/2000/svg" viewBox="0 0 170.86 150.17"><defs><style>.cls-1{fill:#212a31;}</style></defs><path class="cls-1" d="M88.89,43.43c-30,0-47.54,31.36-47.54,31.36s17.55,31.36,47.54,31.36,47.54-31.36,47.54-31.36S118.88,43.43,88.89,43.43Zm0,57.57A26.21,26.21,0,1,1,115.1,74.79,26.21,26.21,0,0,1,88.89,101Z"/><circle class="cls-1" cx="88.89" cy="74.79" r="14.35"/><path class="cls-1" d="M88.89,39.32A3.09,3.09,0,0,0,92,36.23V21.38a3.09,3.09,0,0,0-6.18,0V36.23A3.09,3.09,0,0,0,88.89,39.32Z"/><path class="cls-1" d="M72.34,39.66a3.09,3.09,0,1,0,5.74-2.27L73.66,26.2a3.09,3.09,0,0,0-5.75,2.28Z"/><path class="cls-1" d="M59.46,45.62a3.09,3.09,0,1,0,4.36-4.37L58.2,35.62A3.09,3.09,0,0,0,53.83,40Z"/><path class="cls-1" d="M118.35,45.62,124,40a3.09,3.09,0,0,0-4.37-4.37L114,41.25a3.09,3.09,0,1,0,4.37,4.37Z"/><path class="cls-1" d="M101.56,41.49a3.08,3.08,0,0,0,4-1.74L110,28.43a3.09,3.09,0,0,0-1.73-4h0a3.09,3.09,0,0,0-4,1.73L99.82,37.48A3.09,3.09,0,0,0,101.56,41.49Z"/><path class="cls-1" d="M88.91,110.85a3.09,3.09,0,0,0-3.08,3.09v14.85a3.09,3.09,0,1,0,6.17,0V113.94A3.09,3.09,0,0,0,88.91,110.85Z"/><path class="cls-1" d="M105.47,110.51a3.09,3.09,0,0,0-5.75,2.27L104.15,124a3.09,3.09,0,1,0,5.74-2.27Z"/><path class="cls-1" d="M118.35,104.56a3.09,3.09,0,1,0-4.37,4.37l5.63,5.62a3.09,3.09,0,1,0,4.37-4.36Z"/><path class="cls-1" d="M59.46,104.56l-5.63,5.63a3.09,3.09,0,1,0,4.37,4.36l5.62-5.62a3.09,3.09,0,0,0-4.36-4.37Z"/><path class="cls-1" d="M76.25,108.68a3.1,3.1,0,0,0-4,1.74l-4.48,11.33a3.1,3.1,0,0,0,1.74,4h0a3.1,3.1,0,0,0,4-1.74L78,112.69A3.1,3.1,0,0,0,76.25,108.68Z"/></svg>