<svg id="Layer_1" data-name="Layer 1" xmlns="http://www.w3.org/2000/svg" viewBox="0 0 170.86 150.17"><defs><style>.cls-1{fill:#212a31;}</style></defs><path class="cls-1" d="M85.42,52.18a3.09,3.09,0,0,0,3.09-3.09V34.25a3.09,3.09,0,0,0-6.18,0V49.09A3.09,3.09,0,0,0,85.42,52.18Z"/><path class="cls-1" d="M68.86,52.53a3.09,3.09,0,0,0,5.75-2.27L70.18,39.07a3.09,3.09,0,1,0-5.74,2.27Z"/><path class="cls-1" d="M56,58.48a3.09,3.09,0,1,0,4.37-4.37l-5.63-5.63a3.09,3.09,0,1,0-4.37,4.37Z"/><path class="cls-1" d="M114.87,58.48l5.63-5.63a3.09,3.09,0,0,0-4.36-4.37l-5.63,5.63a3.09,3.09,0,1,0,4.36,4.37Z"/><path class="cls-1" d="M98.08,54.35a3.09,3.09,0,0,0,4-1.73l4.48-11.33a3.09,3.09,0,0,0-1.74-4h0a3.09,3.09,0,0,0-4,1.74L96.35,50.34A3.09,3.09,0,0,0,98.08,54.35Z"/><path class="cls-1" d="M85.43,56.29c-30,0-47.54,31.37-47.54,31.37S55.44,119,85.43,119,133,87.66,133,87.66,115.42,56.29,85.43,56.29Zm28.21,27.47c-.62,12.53-28.21,30.47-28.21,30.47S57.83,96.29,57.22,83.76s13.42-26.44,28.21-9.89C100.22,57.32,114.25,71.23,113.64,83.76Z"/></svg>