<svg id="Layer_1" data-name="Layer 1" xmlns="http://www.w3.org/2000/svg" viewBox="0 0 357.68 150.17"><defs><style>.cls-1{fill:#212a31;}</style></defs><path class="cls-1" d="M54.72,36.51a15.94,15.94,0,0,0-6.52-1.22H37V65.12h3.15V55.7h8a15.77,15.77,0,0,0,6.52-1.23A9.59,9.59,0,0,0,58.91,51a9.8,9.8,0,0,0,1.47-5.43A10,10,0,0,0,58.91,40,9.4,9.4,0,0,0,54.72,36.51ZM54.91,51c-1.55,1.3-3.81,1.94-6.8,1.94H40.19V38h7.92c3,0,5.25.65,6.8,2a6.84,6.84,0,0,1,2.32,5.54A6.71,6.71,0,0,1,54.91,51Z"/><path class="cls-1" d="M96.11,39.34a14.94,14.94,0,0,0-5-3.17,17.79,17.79,0,0,0-12.48,0,14.69,14.69,0,0,0-8.24,8,16.1,16.1,0,0,0,0,12,14.65,14.65,0,0,0,8.26,8,16.8,16.8,0,0,0,6.24,1.13,16.58,16.58,0,0,0,6.22-1.13,14.94,14.94,0,0,0,5-3.17,14.52,14.52,0,0,0,3.28-4.82,16.23,16.23,0,0,0,0-12.1A14.58,14.58,0,0,0,96.11,39.34Zm.36,15.79a12.15,12.15,0,0,1-2.62,3.92,11.68,11.68,0,0,1-4,2.59,13.91,13.91,0,0,1-10,0,12,12,0,0,1-4-2.59,12.12,12.12,0,0,1-2.64-3.95,13.43,13.43,0,0,1,0-9.82,12.21,12.21,0,0,1,2.64-3.92,12,12,0,0,1,4-2.59,13.91,13.91,0,0,1,10,0,11.68,11.68,0,0,1,4,2.59,12.15,12.15,0,0,1,2.62,3.92,13.37,13.37,0,0,1,0,9.85Z"/><polygon class="cls-1" points="175.25 65.12 178.4 65.12 178.4 52.46 193.82 52.46 193.82 49.74 178.4 49.74 178.4 38.02 195.7 38.02 195.7 35.29 175.25 35.29 175.25 65.12"/><path class="cls-1" d="M230.32,39.34a15,15,0,0,0-5-3.17,17.79,17.79,0,0,0-12.48,0,14.68,14.68,0,0,0-5,3.19,15,15,0,0,0-3.28,4.82,16.1,16.1,0,0,0,0,12,15,15,0,0,0,3.28,4.82,14.66,14.66,0,0,0,5,3.19,16.8,16.8,0,0,0,6.24,1.13,16.62,16.62,0,0,0,6.22-1.13,15,15,0,0,0,5-3.17,14.67,14.67,0,0,0,3.28-4.82,16.23,16.23,0,0,0,0-12.1A14.73,14.73,0,0,0,230.32,39.34Zm.36,15.79a12.31,12.31,0,0,1-2.62,3.92,11.82,11.82,0,0,1-4,2.59,13,13,0,0,1-5,.92,13.13,13.13,0,0,1-5-.92,11.75,11.75,0,0,1-6.65-6.54,13.29,13.29,0,0,1,0-9.82,12,12,0,0,1,2.64-3.92,11.89,11.89,0,0,1,4-2.59,13.13,13.13,0,0,1,5-.92,13,13,0,0,1,5,.92,11.82,11.82,0,0,1,4,2.59,12.31,12.31,0,0,1,2.62,3.92,13.51,13.51,0,0,1,0,9.85Z"/><polygon class="cls-1" points="249.25 35.29 246.1 35.29 246.1 65.12 265.95 65.12 265.95 62.39 249.25 62.39 249.25 35.29"/><rect class="cls-1" x="275.45" y="35.29" width="3.15" height="29.82"/><path class="cls-1" d="M316.8,39.34a14.89,14.89,0,0,0-5-3.17,17.79,17.79,0,0,0-12.48,0,14.68,14.68,0,0,0-5,3.19,14.83,14.83,0,0,0-3.28,4.82,16.1,16.1,0,0,0,0,12,14.83,14.83,0,0,0,3.28,4.82,14.66,14.66,0,0,0,5,3.19,17.74,17.74,0,0,0,12.46,0,14.89,14.89,0,0,0,5-3.17,14.37,14.37,0,0,0,3.28-4.82,16.23,16.23,0,0,0,0-12.1A14.43,14.43,0,0,0,316.8,39.34Zm.36,15.79a12,12,0,0,1-2.62,3.92,11.68,11.68,0,0,1-4,2.59,13,13,0,0,1-5,.92,13.22,13.22,0,0,1-5-.92A11.77,11.77,0,0,1,294,55.1a13.29,13.29,0,0,1,0-9.82,11.84,11.84,0,0,1,6.64-6.51,13.22,13.22,0,0,1,5-.92,13,13,0,0,1,5,.92,11.68,11.68,0,0,1,4,2.59,12,12,0,0,1,2.62,3.92,13.37,13.37,0,0,1,0,9.85Z"/><path class="cls-1" d="M57.34,79.7a18.68,18.68,0,0,0-7.67-1.45H35.34v33.12h7.71v-9.13h6.62a18.35,18.35,0,0,0,7.67-1.47,11.88,11.88,0,0,0,5-16.93A11.16,11.16,0,0,0,57.34,79.7ZM54.55,94.48A8.05,8.05,0,0,1,49.25,96h-6.2V84.5h6.2A8.17,8.17,0,0,1,54.55,86a5.2,5.2,0,0,1,1.79,4.23A5.29,5.29,0,0,1,54.55,94.48Z"/><path class="cls-1" d="M96.22,100.7a11,11,0,0,0,5-4.07,12.56,12.56,0,0,0,0-12.79,11.19,11.19,0,0,0-5-4.14,18.63,18.63,0,0,0-7.66-1.45H74.23v33.12h7.71V102.1h7l6.43,9.28h8.23l-7.37-10.65ZM93.43,86a5.17,5.17,0,0,1,1.8,4.23,5.26,5.26,0,0,1-1.8,4.26A8,8,0,0,1,88.13,96H81.94V84.5h6.19A8.15,8.15,0,0,1,93.43,86Z"/><path class="cls-1" d="M200.91,79.7a18.68,18.68,0,0,0-7.67-1.45H178.91v33.12h7.71v-9.13h6.62a18.35,18.35,0,0,0,7.67-1.47,11.91,11.91,0,0,0,5-16.93A11.16,11.16,0,0,0,200.91,79.7Zm-2.8,14.78A8,8,0,0,1,192.82,96h-6.2V84.5h6.2A8.12,8.12,0,0,1,198.11,86a5.17,5.17,0,0,1,1.8,4.23A5.26,5.26,0,0,1,198.11,94.48Z"/><polygon class="cls-1" points="240.5 91.31 225.5 91.31 225.5 78.25 217.79 78.25 217.79 111.37 225.5 111.37 225.5 97.79 240.5 97.79 240.5 111.37 248.16 111.37 248.16 78.25 240.5 78.25 240.5 91.31"/><polygon class="cls-1" points="268.36 97.56 283.74 97.56 283.74 91.55 268.36 91.55 268.36 84.4 285.77 84.4 285.77 78.25 260.75 78.25 260.75 111.37 286.38 111.37 286.38 105.22 268.36 105.22 268.36 97.56"/><polygon class="cls-1" points="293.48 78.25 293.48 84.5 304.08 84.5 304.08 111.37 311.74 111.37 311.74 84.5 322.34 84.5 322.34 78.25 293.48 78.25"/><path class="cls-1" d="M140.79,75.46c-19,0-30.08,19.84-30.08,19.84s11.11,19.84,30.08,19.84S170.86,95.3,170.86,95.3,159.75,75.46,140.79,75.46Zm0,36.42A16.58,16.58,0,1,1,157.36,95.3,16.58,16.58,0,0,1,140.79,111.88Z"/><circle class="cls-1" cx="140.79" cy="95.3" r="9.08"/><path class="cls-1" d="M140.79,72.86a2,2,0,0,0,2-2V61.52a2,2,0,1,0-3.91,0v9.39A2,2,0,0,0,140.79,72.86Z"/><path class="cls-1" d="M130.32,73.08A2,2,0,1,0,134,71.64l-2.8-7.07A2,2,0,0,0,127.52,66Z"/><path class="cls-1" d="M122.17,76.85a2,2,0,1,0,2.76-2.77l-3.56-3.56a2,2,0,0,0-2.76,2.76Z"/><path class="cls-1" d="M159.42,76.85,163,73.28a2,2,0,0,0-2.76-2.76l-3.56,3.56a2,2,0,1,0,2.76,2.77Z"/><path class="cls-1" d="M148.8,74.24a2,2,0,0,0,2.53-1.1L154.17,66a2,2,0,0,0-1.1-2.53h0a2,2,0,0,0-2.54,1.1L147.7,71.7A2,2,0,0,0,148.8,74.24Z"/><path class="cls-1" d="M152.33,58.15c1.06.26,2.12.56,3.15.89V38H166V35.29H141.84V38h10.49Z"/><path class="cls-1" d="M115.05,55.66h8a20.39,20.39,0,0,0,2.4-.14l1.85,2.61q1.27-.62,2.61-1.14l-1.5-2.11a10.52,10.52,0,0,0,1.15-.44,9.38,9.38,0,0,0,4.2-3.49,9.8,9.8,0,0,0,1.47-5.43A10,10,0,0,0,133.77,40a9.38,9.38,0,0,0-4.2-3.49,15.89,15.89,0,0,0-6.51-1.22H111.89V65.12h3.16Zm0-17.64H123q4.47,0,6.8,2a6.87,6.87,0,0,1,2.32,5.54A6.8,6.8,0,0,1,129.77,51q-2.33,2-6.8,2h-7.92Z"/></svg>