<svg id="Layer_1" data-name="Layer 1" xmlns="http://www.w3.org/2000/svg" viewBox="0 0 170.86 150.17"><defs><style>.cls-1{fill:#faf7f2;}</style></defs><path class="cls-1" d="M79.13,56.29c-30,0-47.54,31.37-47.54,31.37S49.15,119,79.13,119s47.55-31.36,47.55-31.36S109.12,56.29,79.13,56.29Zm0,57.57a26.21,26.21,0,1,1,26.21-26.2A26.2,26.2,0,0,1,79.13,113.86Z"/><circle class="cls-1" cx="79.13" cy="87.66" r="14.35"/><path class="cls-1" d="M79.14,52.18a3.09,3.09,0,0,0,3.09-3.09V34.25a3.09,3.09,0,0,0-6.18,0V49.09A3.09,3.09,0,0,0,79.14,52.18Z"/><path class="cls-1" d="M62.58,52.53a3.09,3.09,0,0,0,5.75-2.27L63.9,39.07a3.09,3.09,0,1,0-5.74,2.27Z"/><path class="cls-1" d="M49.7,58.48a3.09,3.09,0,1,0,4.37-4.37l-5.63-5.63a3.09,3.09,0,1,0-4.37,4.37Z"/><path class="cls-1" d="M108.59,58.48l5.63-5.63a3.09,3.09,0,0,0-4.37-4.37l-5.62,5.63a3.09,3.09,0,1,0,4.36,4.37Z"/><path class="cls-1" d="M91.8,54.35a3.09,3.09,0,0,0,4-1.73l4.48-11.33a3.1,3.1,0,0,0-1.74-4h0a3.09,3.09,0,0,0-4,1.74L90.06,50.34A3.09,3.09,0,0,0,91.8,54.35Z"/></svg>